<svg xmlns="http://www.w3.org/2000/svg" viewBox="0 0 128 128">
  <path fill="#1572B6" d="M18.814 114.123L8.76 1.346h110.48l-10.064 112.754-45.243 12.543z"/>
  <path fill="#33A9DC" d="M64.001 117.062l36.559-10.136 8.601-96.354h-45.16z"/>
  <path fill="#fff" d="M64.001 51.429h18.302l1.264-14.163H64.001V23.435h34.739l-.332 3.711-3.4 38.114H64.001z"/>
  <path fill="#EBEBEB" d="M64.083 87.349l-.049.013-16.48-4.446-.847-9.496h-13.822l1.634 18.19 30.018 8.329.049-.013z"/>
  <path fill="#fff" d="M81.127 64.675l-1.62 18.163L64.08 87.33v13.817l30.018-8.329 2.27-25.434z"/>
  <path fill="#EBEBEB" d="M64.001 51.431v13.763h-16.594l-1.085-12.165L64.001 51.431z"/>
  <path fill="#EBEBEB" d="M64.001 23.435v13.763H49.336l-.332-3.711L64.001 23.435z"/>
</svg> 