<svg xmlns="http://www.w3.org/2000/svg" viewBox="0 0 128 128">
  <path fill="#F03C2E" d="M124.737 58.378L69.621 3.264c-3.172-3.174-8.32-3.174-11.497 0L46.68 14.71l14.518 14.518c3.375-1.139 7.243-.375 9.932 2.314 2.703 2.706 3.461 6.607 2.294 9.993l13.992 13.993c3.385-1.167 7.292-.413 9.994 2.295 3.78 3.777 3.78 9.9 0 13.679a9.673 9.673 0 01-13.683 0c-2.842-2.844-3.545-7.019-2.105-10.521L70.76 47.282l-.006 19.136a9.708 9.708 0 012.318 1.336c3.783 3.776 3.783 9.898 0 13.683-3.779 3.777-9.904 3.777-13.691 0-3.189-3.194-3.448-7.378-1.08-10.994L48.648 41.075 35.736 28.164c-3.172-3.172-8.325-3.172-11.499 0L3.264 58.378c-3.172 3.174-3.172 8.327 0 11.501l14.973 14.973L3.264 99.825c-3.172 3.173-3.172 8.325 0 11.499l23.973 23.973c3.174 3.172 8.327 3.172 11.499 0L69.621 88.378l14.973 14.973c3.174 3.172 8.327 3.172 11.499 0l23.973-23.973c3.172-3.174 3.172-8.326 0-11.499L109.764 84.852l14.973-14.973c3.172-3.174 3.172-8.327 0-11.501z"/>
</svg> 