<svg xmlns="http://www.w3.org/2000/svg" viewBox="0 0 128 128">
  <path fill="#E34F26" d="M19.037 113.876L9.032 1.661h109.936l-10.004 112.198-45.019 12.48z"/>
  <path fill="#EF652A" d="M64 116.8l36.378-10.086 8.559-95.878H64z"/>
  <path fill="#fff" d="M64 52.455H45.788L44.53 38.361H64V24.599H29.489l.33 3.692 3.382 37.927H64z"/>
  <path fill="#fff" d="M64 88.348l-.049.013-16.48-4.446-1.056-11.817H35.792l2.072 23.215 30.136 8.359.049-.013z"/>
  <path fill="#EBEBEB" d="M64 52.455v13.762h16.835l-1.008 11.299L64 88.348v13.762l30.136-8.359.285-3.162 2.072-23.215H64z"/>
  <path fill="#EBEBEB" d="M64 24.599v13.762h29.521l.33-3.692L64 24.599z"/>
</svg> 