<svg xmlns="http://www.w3.org/2000/svg" viewBox="0 0 128 128">
  <path fill="#F7DF1E" d="M0 0h128v128H0V0z"/>
  <path d="M67.312 113.932l19.59-11.856c3.78 6.701 7.218 12.371 15.465 12.371 7.905 0 12.89-3.092 12.89-7.688 0-5.28-3.903-7.43-12.89-10.701l-4.427-1.896c-12.79-5.465-21.252-12.371-21.252-27.025 0-13.431 10.233-23.673 26.18-23.673 11.295 0 19.427 3.778 25.244 13.674L99.1 71.03c-3.28-5.767-6.53-8.154-11.295-8.154-5.147 0-8.404 3.334-8.404 8.154 0 5.697 3.257 7.827 11.295 10.701l4.426 1.896c15.058 6.463 25.244 13.063 25.244 27.574 0 16.135-12.79 24.795-29.95 24.795-16.908 0-28.14-8.195-33.234-18.687zm-40.936 8.136L8.057 100.602c4.499 6.701 8.404 12.371 16.66 12.371 8.404 0 13.674-3.092 13.674-7.688 0-5.28-4.037-7.43-13.674-10.701l-4.427-1.896C9.35 87.432 1 80.526 1 65.872 1 52.422 11.233 42.18 27.18 42.18c11.295 0 19.427 3.778 25.244 13.674L59.9 71.03c-3.28-5.767-6.53-8.154-11.295-8.154-5.147 0-8.404 3.334-8.404 8.154 0 5.697 3.257 7.827 11.295 10.701l4.426 1.896c15.058 6.463 25.244 13.063 25.244 27.574 0 16.135-12.79 24.795-29.95 24.795-16.908 0-28.14-8.195-33.234-18.687z"/>
</svg> 