<svg xmlns="http://www.w3.org/2000/svg" viewBox="0 0 128 128">
  <path fill="#000000" d="M110.933 65.119c-3.172-6.365-8.008-11.201-14.373-14.373 3.172-6.365 8.008-11.201 14.373-14.373 3.172 6.365 8.008 11.201 14.373 14.373-6.365 3.172-11.201 8.008-14.373 14.373z"/>
  <path fill="#000000" d="M17.067 65.119c3.172-6.365 8.008-11.201 14.373-14.373-3.172-6.365-8.008-11.201-14.373-14.373-3.172 6.365-8.008 11.201-14.373 14.373 6.365 3.172 11.201 8.008 14.373 14.373z"/>
  <path fill="#000000" d="M64 17.067c6.365 3.172 11.201 8.008 14.373 14.373-6.365 3.172-11.201 8.008-14.373 14.373-3.172-6.365-8.008-11.201-14.373-14.373 6.365-3.172 11.201-8.008 14.373-14.373z"/>
  <path fill="#000000" d="M64 110.933c-6.365-3.172-11.201-8.008-14.373-14.373 6.365-3.172 11.201-8.008 14.373-14.373 3.172 6.365 8.008 11.201 14.373 14.373-6.365 3.172-11.201 8.008-14.373 14.373z"/>
  <circle fill="#000000" cx="64" cy="64" r="8"/>
</svg> 