<svg xmlns="http://www.w3.org/2000/svg" viewBox="0 0 128 128">
  <path fill="#FFD43B" d="M63.391 1.988c-4.222.02-8.252.379-11.8 1.007-10.45 1.846-12.346 5.71-12.346 12.837v9.411h24.693v3.137H29.977c-7.176 0-13.46 5.313-14.836 12.521-2.172 11.345-2.172 22.73 0 34.075 1.376 7.207 7.66 12.521 14.836 12.521h8.164V75.037c0-8.366 6.686-15.053 15.053-15.053h19.21c6.627 0 12.346-5.313 12.346-12.837V15.832c0-7.108-5.878-10.99-12.346-12.837-3.548-.628-7.578-.987-11.8-1.007zM50.037 9.614c2.55 0 4.634 2.117 4.634 4.721 0 2.593-2.083 4.69-4.634 4.69-2.56 0-4.633-2.097-4.633-4.69-.001-2.604 2.073-4.721 4.633-4.721z"/>
  <path fill="#306998" d="M91.682 28.38v10.966c0 8.367-6.686 15.053-15.053 15.053H57.42c-6.627 0-12.346 5.313-12.346 12.837v23.491c0 7.108 5.878 10.99 12.346 12.837 3.548.628 7.578.987 11.8 1.007 4.222-.02 8.252-.379 11.8-1.007 10.45-1.846 12.346-5.71 12.346-12.837V75.037h-24.693v-3.137h24.693c7.176 0 13.46-5.313 14.836-12.521 2.172-11.345 2.172-22.73 0-34.075-1.376-7.207-7.66-12.521-14.836-12.521h-8.164zM77.963 87.927c2.56 0 4.634 2.097 4.634 4.69 0 2.604-2.074 4.721-4.634 4.721-2.55 0-4.633-2.117-4.633-4.721 0-2.593 2.083-4.69 4.633-4.69z"/>
</svg> 